<svg xmlns="http://www.w3.org/2000/svg" version="1.1" xmlns:xlink="http://www.w3.org/1999/xlink" xmlns:svgjs="http://svgjs.com/svgjs" width="1440" height="560" preserveAspectRatio="none" viewBox="0 0 1440 560"><g mask="url(&quot;#SvgjsMask1020&quot;)" fill="none"><rect width="1440" height="560" x="0" y="0" fill="rgba(201, 19, 55, 1)"></rect><path d="M -533.3137743826724,488 C -475.71,409.4 -360.51,113.6 -245.31377438267234,95 C -130.11,76.4 -72.51,363.6 42.686225617327665,395 C 157.89,426.4 215.49,245.4 330.68622561732764,252 C 445.89,258.6 503.49,428.6 618.6862256173276,428 C 733.89,427.4 791.49,277 906.6862256173276,249 C 1021.89,221 1088.02,288.8 1194.6862256173276,288 C 1301.35,287.2 1390.94,253.6 1440,245" stroke="rgba(255, 255, 255, 1)" stroke-width="2"></path><path d="M -11.952927524671395,182 C 45.65,215.4 160.85,349.4 276.0470724753286,349 C 391.25,348.6 448.85,157.6 564.0470724753286,180 C 679.25,202.4 736.85,465.4 852.0470724753286,461 C 967.25,456.6 1024.85,164.2 1140.0470724753286,158 C 1255.25,151.8 1312.85,428.8 1428.0470724753286,430 C 1543.25,431.2 1713.66,162 1716.0470724753286,164 C 1718.44,166 1495.21,384.8 1440,440" stroke="rgba(255, 255, 255, 1)" stroke-width="2"></path><path d="M -499.31529997767484,144 C -441.72,214.4 -326.52,504.6 -211.31529997767484,496 C -96.12,487.4 -38.52,116.4 76.68470002232516,101 C 191.88,85.6 249.48,385 364.68470002232516,419 C 479.88,453 537.48,254 652.6847000223252,271 C 767.88,288 825.48,537.6 940.6847000223252,504 C 1055.88,470.4 1128.82,130 1228.6847000223252,103 C 1328.55,76 1397.74,315.8 1440,369" stroke="rgba(255, 255, 255, 1)" stroke-width="2"></path><path d="M -554.2092739892754,398 C -496.61,352.6 -381.41,157.6 -266.2092739892754,171 C -151.01,184.4 -93.41,448.8 21.790726010724597,465 C 136.99,481.2 194.59,267.6 309.7907260107246,252 C 424.99,236.4 482.59,392.6 597.7907260107246,387 C 712.99,381.4 770.59,232 885.7907260107246,224 C 1000.99,216 1062.95,350.8 1173.7907260107245,347 C 1284.63,343.2 1386.76,233.4 1440,205" stroke="rgba(255, 255, 255, 1)" stroke-width="2"></path></g><defs><mask id="SvgjsMask1020"><rect width="1440" height="560" fill="#ffffff"></rect></mask></defs></svg>